<mxfile host="app.diagrams.net" modified="2023-09-07T06:54:35.817Z" agent="Mozilla/5.0 (Windows NT 10.0; Win64; x64) AppleWebKit/537.36 (KHTML, like Gecko) Chrome/115.0.0.0 Safari/537.36" etag="i8DRVfcQgu-tRD0g-nXc" version="21.7.2" type="github">
  <diagram name="第 1 页" id="TcpiQXXUWc1p7RaLZvVN">
    <mxGraphModel dx="989" dy="523" grid="1" gridSize="10" guides="1" tooltips="1" connect="1" arrows="1" fold="1" page="1" pageScale="1" pageWidth="827" pageHeight="1169" math="0" shadow="0">
      <root>
        <mxCell id="0" />
        <mxCell id="1" parent="0" />
        <mxCell id="YLJdL4NDfY9N8e260bSm-1" value="业务方" style="shape=umlLifeline;perimeter=lifelinePerimeter;whiteSpace=wrap;html=1;container=1;dropTarget=0;collapsible=0;recursiveResize=0;outlineConnect=0;portConstraint=eastwest;newEdgeStyle={&quot;edgeStyle&quot;:&quot;elbowEdgeStyle&quot;,&quot;elbow&quot;:&quot;vertical&quot;,&quot;curved&quot;:0,&quot;rounded&quot;:0};" parent="1" vertex="1">
          <mxGeometry x="191" y="40" width="100" height="520" as="geometry" />
        </mxCell>
        <mxCell id="YLJdL4NDfY9N8e260bSm-2" value="" style="html=1;points=[];perimeter=orthogonalPerimeter;outlineConnect=0;targetShapes=umlLifeline;portConstraint=eastwest;newEdgeStyle={&quot;edgeStyle&quot;:&quot;elbowEdgeStyle&quot;,&quot;elbow&quot;:&quot;vertical&quot;,&quot;curved&quot;:0,&quot;rounded&quot;:0};" parent="YLJdL4NDfY9N8e260bSm-1" vertex="1">
          <mxGeometry x="46" y="217" width="10" height="40" as="geometry" />
        </mxCell>
        <mxCell id="YLJdL4NDfY9N8e260bSm-3" value="VirtualDisplay.resize()" style="html=1;align=left;spacingLeft=2;endArrow=block;rounded=0;edgeStyle=orthogonalEdgeStyle;curved=0;rounded=0;" parent="YLJdL4NDfY9N8e260bSm-1" target="YLJdL4NDfY9N8e260bSm-2" edge="1">
          <mxGeometry relative="1" as="geometry">
            <mxPoint x="51" y="197" as="sourcePoint" />
            <Array as="points">
              <mxPoint x="81" y="227" />
            </Array>
          </mxGeometry>
        </mxCell>
        <mxCell id="YLJdL4NDfY9N8e260bSm-21" value="" style="html=1;points=[];perimeter=orthogonalPerimeter;outlineConnect=0;targetShapes=umlLifeline;portConstraint=eastwest;newEdgeStyle={&quot;edgeStyle&quot;:&quot;elbowEdgeStyle&quot;,&quot;elbow&quot;:&quot;vertical&quot;,&quot;curved&quot;:0,&quot;rounded&quot;:0};" parent="YLJdL4NDfY9N8e260bSm-1" vertex="1">
          <mxGeometry x="45" y="413" width="10" height="40" as="geometry" />
        </mxCell>
        <mxCell id="YLJdL4NDfY9N8e260bSm-22" value="VirtualDisplay.resize()" style="html=1;align=left;spacingLeft=2;endArrow=block;rounded=0;edgeStyle=orthogonalEdgeStyle;curved=0;rounded=0;" parent="YLJdL4NDfY9N8e260bSm-1" target="YLJdL4NDfY9N8e260bSm-21" edge="1">
          <mxGeometry relative="1" as="geometry">
            <mxPoint x="50" y="393" as="sourcePoint" />
            <Array as="points">
              <mxPoint x="80" y="423" />
            </Array>
          </mxGeometry>
        </mxCell>
        <mxCell id="YLJdL4NDfY9N8e260bSm-6" value="投屏框架" style="shape=umlLifeline;perimeter=lifelinePerimeter;whiteSpace=wrap;html=1;container=1;dropTarget=0;collapsible=0;recursiveResize=0;outlineConnect=0;portConstraint=eastwest;newEdgeStyle={&quot;edgeStyle&quot;:&quot;elbowEdgeStyle&quot;,&quot;elbow&quot;:&quot;vertical&quot;,&quot;curved&quot;:0,&quot;rounded&quot;:0};" parent="1" vertex="1">
          <mxGeometry x="421" y="40" width="100" height="520" as="geometry" />
        </mxCell>
        <mxCell id="YLJdL4NDfY9N8e260bSm-7" value="1、开启镜像投屏" style="text;html=1;align=center;verticalAlign=middle;resizable=0;points=[];autosize=1;strokeColor=none;fillColor=none;" parent="1" vertex="1">
          <mxGeometry x="110" y="100" width="110" height="30" as="geometry" />
        </mxCell>
        <mxCell id="YLJdL4NDfY9N8e260bSm-8" value="MediaProjection.createVirtualDisplay()" style="html=1;verticalAlign=bottom;endArrow=block;edgeStyle=elbowEdgeStyle;elbow=vertical;curved=0;rounded=0;" parent="1" edge="1">
          <mxGeometry width="80" relative="1" as="geometry">
            <mxPoint x="246" y="120" as="sourcePoint" />
            <mxPoint x="466.5" y="119.75862068965523" as="targetPoint" />
          </mxGeometry>
        </mxCell>
        <mxCell id="YLJdL4NDfY9N8e260bSm-9" value="投屏框架创建VirtualDisplay虚拟屏" style="text;html=1;align=center;verticalAlign=middle;resizable=0;points=[];autosize=1;strokeColor=none;fillColor=none;" parent="1" vertex="1">
          <mxGeometry x="488" y="100" width="200" height="30" as="geometry" />
        </mxCell>
        <mxCell id="YLJdL4NDfY9N8e260bSm-10" value="VirtualDisplay" style="html=1;verticalAlign=bottom;endArrow=open;dashed=1;endSize=8;edgeStyle=elbowEdgeStyle;elbow=vertical;curved=0;rounded=0;" parent="1" edge="1">
          <mxGeometry relative="1" as="geometry">
            <mxPoint x="464" y="160" as="sourcePoint" />
            <mxPoint x="244.81034482758628" y="159.75862068965523" as="targetPoint" />
          </mxGeometry>
        </mxCell>
        <mxCell id="YLJdL4NDfY9N8e260bSm-11" value="&lt;div style=&quot;line-height: 100%;&quot; data-language=&quot;plain&quot; class=&quot;ql-code-block ql-long-210036 ql-authorBlock-210036 ql-direction-ltr&quot;&gt;startActivityToMirageDisplay() --pc/car&lt;/div&gt;&lt;div style=&quot;line-height: 100%;&quot; data-language=&quot;plain&quot; class=&quot;ql-code-block ql-long-210036 ql-authorBlock-210036 ql-direction-ltr&quot;&gt;&lt;div style=&quot;line-height: 100%;&quot; data-language=&quot;plain&quot; class=&quot;ql-code-block ql-long-210036 ql-authorBlock-210036 ql-direction-ltr&quot;&gt;moveTaskToDisplay() -- pad/tv/听剧&lt;/div&gt;&lt;/div&gt;" style="html=1;verticalAlign=bottom;endArrow=block;edgeStyle=elbowEdgeStyle;elbow=vertical;curved=0;rounded=0;" parent="1" edge="1">
          <mxGeometry width="80" relative="1" as="geometry">
            <mxPoint x="247" y="316" as="sourcePoint" />
            <mxPoint x="467" y="316" as="targetPoint" />
          </mxGeometry>
        </mxCell>
        <mxCell id="YLJdL4NDfY9N8e260bSm-12" value="2、切换后台投屏" style="text;html=1;align=center;verticalAlign=middle;resizable=0;points=[];autosize=1;strokeColor=none;fillColor=none;" parent="1" vertex="1">
          <mxGeometry x="112" y="180" width="110" height="30" as="geometry" />
        </mxCell>
        <mxCell id="YLJdL4NDfY9N8e260bSm-13" value="&lt;div style=&quot;text-align: left;&quot;&gt;移栈，这里会提供多个接口，由业务方自己根据投屏模式&lt;/div&gt;&lt;div style=&quot;text-align: left;&quot;&gt;来调用相应接口，不再由框架根据来根据业务逻辑确定&lt;/div&gt;" style="text;html=1;align=center;verticalAlign=middle;resizable=0;points=[];autosize=1;strokeColor=none;fillColor=none;" parent="1" vertex="1">
          <mxGeometry x="496" y="291" width="320" height="40" as="geometry" />
        </mxCell>
        <mxCell id="YLJdL4NDfY9N8e260bSm-15" value="3、切换回镜像投屏" style="text;html=1;align=center;verticalAlign=middle;resizable=0;points=[];autosize=1;strokeColor=none;fillColor=none;" parent="1" vertex="1">
          <mxGeometry x="100" y="330" width="130" height="30" as="geometry" />
        </mxCell>
        <mxCell id="YLJdL4NDfY9N8e260bSm-16" value="moveTaskToDisplay()" style="html=1;verticalAlign=bottom;endArrow=block;edgeStyle=elbowEdgeStyle;elbow=horizontal;curved=0;rounded=0;" parent="1" edge="1">
          <mxGeometry width="80" relative="1" as="geometry">
            <mxPoint x="248" y="367.74" as="sourcePoint" />
            <mxPoint x="468" y="367.74" as="targetPoint" />
          </mxGeometry>
        </mxCell>
        <mxCell id="YLJdL4NDfY9N8e260bSm-17" value="&lt;div style=&quot;text-align: left;&quot;&gt;会提供多种模式，由业务方自己根据投屏模式不同调用不同&lt;/div&gt;&lt;div style=&quot;text-align: left;&quot;&gt;接口，来实现不同策略&lt;/div&gt;" style="text;html=1;align=center;verticalAlign=middle;resizable=0;points=[];autosize=1;strokeColor=none;fillColor=none;" parent="1" vertex="1">
          <mxGeometry x="486" y="346" width="340" height="40" as="geometry" />
        </mxCell>
        <mxCell id="YLJdL4NDfY9N8e260bSm-18" value="resize VirtualDisplay&lt;br&gt;重新设置尺寸等信息" style="text;html=1;align=center;verticalAlign=middle;resizable=0;points=[];autosize=1;strokeColor=none;fillColor=none;" parent="1" vertex="1">
          <mxGeometry x="92" y="250" width="130" height="40" as="geometry" />
        </mxCell>
        <mxCell id="YLJdL4NDfY9N8e260bSm-19" value="4、关闭镜像投屏" style="text;html=1;align=center;verticalAlign=middle;resizable=0;points=[];autosize=1;strokeColor=none;fillColor=none;" parent="1" vertex="1">
          <mxGeometry x="112" y="505" width="110" height="30" as="geometry" />
        </mxCell>
        <mxCell id="YLJdL4NDfY9N8e260bSm-20" value="Mirage.destoryVirtualDisplay()" style="html=1;verticalAlign=bottom;endArrow=block;edgeStyle=elbowEdgeStyle;elbow=vertical;curved=0;rounded=0;" parent="1" edge="1">
          <mxGeometry width="80" relative="1" as="geometry">
            <mxPoint x="244" y="518.96" as="sourcePoint" />
            <mxPoint x="464" y="518.96" as="targetPoint" />
          </mxGeometry>
        </mxCell>
        <mxCell id="YLJdL4NDfY9N8e260bSm-23" value="resize VirtualDisplay&lt;br&gt;重新设置尺寸等信息" style="text;html=1;align=center;verticalAlign=middle;resizable=0;points=[];autosize=1;strokeColor=none;fillColor=none;" parent="1" vertex="1">
          <mxGeometry x="90" y="450" width="130" height="40" as="geometry" />
        </mxCell>
        <mxCell id="YLJdL4NDfY9N8e260bSm-24" value="销毁VirtualDisplay虚拟屏" style="text;html=1;align=center;verticalAlign=middle;resizable=0;points=[];autosize=1;strokeColor=none;fillColor=none;" parent="1" vertex="1">
          <mxGeometry x="488" y="505" width="160" height="30" as="geometry" />
        </mxCell>
        <mxCell id="uxzzp760LAjKfmrw6Dc_-1" value="stopMirageWindowMode()" style="html=1;verticalAlign=bottom;endArrow=block;edgeStyle=elbowEdgeStyle;elbow=vertical;curved=0;rounded=0;" parent="1" edge="1">
          <mxGeometry width="80" relative="1" as="geometry">
            <mxPoint x="246" y="408.74" as="sourcePoint" />
            <mxPoint x="466" y="408.74" as="targetPoint" />
          </mxGeometry>
        </mxCell>
        <mxCell id="uxzzp760LAjKfmrw6Dc_-2" value="createVirtualDisplayDevice()" style="html=1;verticalAlign=bottom;endArrow=block;edgeStyle=elbowEdgeStyle;elbow=vertical;curved=0;rounded=0;" parent="1" edge="1">
          <mxGeometry width="80" relative="1" as="geometry">
            <mxPoint x="245" y="219" as="sourcePoint" />
            <mxPoint x="465" y="219" as="targetPoint" />
          </mxGeometry>
        </mxCell>
      </root>
    </mxGraphModel>
  </diagram>
</mxfile>
